<svg width="106" height="40" viewBox="0 0 106 40" fill="none" xmlns="http://www.w3.org/2000/svg">
<path d="M6.65591 7.816L9.15191 25.096L11.9999 7.816H18.0799L20.9279 25.096L23.4239 7.816H29.4719L24.0959 33H18.0799L15.0399 13.608L11.9999 33H5.95191L0.60791 7.816H6.65591Z" fill="black"/>
<path d="M37.8057 14.536V17.608C37.9763 17.3093 38.1257 17.0533 38.2537 16.84C38.403 16.6267 38.5523 16.4347 38.7017 16.264C38.851 16.0933 39.0003 15.9333 39.1497 15.784C39.3203 15.6347 39.5123 15.4747 39.7257 15.304C39.9817 15.0907 40.227 14.92 40.4617 14.792C40.6963 14.664 40.9417 14.5573 41.1977 14.472C41.475 14.3867 41.763 14.3333 42.0617 14.312C42.3817 14.2693 42.755 14.248 43.1817 14.248V19.56H43.0217C41.2083 19.56 39.8857 19.8267 39.0537 20.36C38.2217 20.872 37.8057 21.704 37.8057 22.856V33H32.4297V14.536H37.8057Z" fill="black"/>
<path d="M46.6194 9.448C46.6194 8.68 46.8754 8.02933 47.3874 7.496C47.8994 6.96267 48.5287 6.696 49.2754 6.696C49.6594 6.696 50.0114 6.77067 50.3314 6.92C50.6727 7.06933 50.9607 7.272 51.1954 7.528C51.4514 7.76267 51.6434 8.05067 51.7714 8.392C51.9207 8.73333 51.9954 9.096 51.9954 9.48C51.9954 10.2693 51.7287 10.9413 51.1954 11.496C50.6834 12.0293 50.0434 12.296 49.2754 12.296C48.5287 12.296 47.8994 12.0293 47.3874 11.496C46.8754 10.9413 46.6194 10.2587 46.6194 9.448ZM51.9954 14.536V33H46.6194V14.536H51.9954Z" fill="black"/>
<path d="M62.8534 15.368H64.8694V19.304H62.8534V28.04C62.8534 28.744 63.3121 29.096 64.2294 29.096H65.5414V32.712C65.0934 32.84 64.7201 32.936 64.4214 33C64.1227 33.0853 63.8454 33.1493 63.5894 33.192C63.3334 33.2347 63.0774 33.256 62.8214 33.256C62.5654 33.2773 62.2774 33.288 61.9574 33.288C61.0401 33.288 60.1761 33.0747 59.3654 32.648C58.7041 32.328 58.2241 31.9013 57.9254 31.368C57.6481 30.8347 57.5094 30.1627 57.5094 29.352V19.304H55.4934V15.368H57.5094V10.344H62.8534V15.368Z" fill="black"/>
<path d="M78.9137 22.376C78.8923 22.12 78.8817 21.8853 78.8817 21.672C78.8817 21.4373 78.871 21.224 78.8497 21.032C78.7643 20.136 78.4977 19.432 78.0497 18.92C77.6017 18.408 77.0257 18.152 76.3217 18.152C75.9377 18.152 75.5857 18.2267 75.2657 18.376C74.9457 18.5253 74.7003 18.7387 74.5297 19.016C74.167 19.5707 73.9537 20.328 73.8897 21.288C73.847 21.6507 73.815 22.0133 73.7937 22.376H78.9137ZM73.8257 25.448C73.8257 25.6827 73.8257 25.9067 73.8257 26.12C73.847 26.3333 73.8683 26.536 73.8897 26.728C73.9963 27.5387 74.263 28.1787 74.6897 28.648C75.1163 29.1173 75.6603 29.352 76.3217 29.352C76.855 29.352 77.2923 29.2133 77.6337 28.936C77.975 28.6373 78.295 28.1253 78.5937 27.4L83.2657 28.808C82.967 29.512 82.7003 30.0347 82.4657 30.376C82.2523 30.7173 81.9643 31.0587 81.6017 31.4C80.983 31.9973 80.2043 32.4667 79.2657 32.808C78.3483 33.128 77.3777 33.288 76.3537 33.288C75.1803 33.288 74.0923 33.0747 73.0897 32.648C72.087 32.2 71.2123 31.5707 70.4657 30.76C69.655 29.864 69.0683 28.84 68.7057 27.688C68.343 26.536 68.1617 25.128 68.1617 23.464C68.1617 22.056 68.3217 20.8293 68.6417 19.784C68.9617 18.7173 69.463 17.7787 70.1457 16.968C71.5963 15.1547 73.5483 14.248 76.0017 14.248C77.111 14.248 78.1137 14.4613 79.0097 14.888C79.927 15.2933 80.695 15.8907 81.3137 16.68C81.9323 17.448 82.4123 18.3867 82.7537 19.496C83.095 20.584 83.2657 21.8107 83.2657 23.176V25.448H73.8257Z" fill="black"/>
<path d="M92.2119 14.536V17.608C92.3826 17.3093 92.5319 17.0533 92.6599 16.84C92.8092 16.6267 92.9586 16.4347 93.1079 16.264C93.2572 16.0933 93.4066 15.9333 93.5559 15.784C93.7266 15.6347 93.9186 15.4747 94.1319 15.304C94.3879 15.0907 94.6332 14.92 94.8679 14.792C95.1026 14.664 95.3479 14.5573 95.6039 14.472C95.8812 14.3867 96.1692 14.3333 96.4679 14.312C96.7879 14.2693 97.1612 14.248 97.5879 14.248V19.56H97.4279C95.6146 19.56 94.2919 19.8267 93.4599 20.36C92.6279 20.872 92.2119 21.704 92.2119 22.856V33H86.8359V14.536H92.2119Z" fill="black"/>
<path d="M103 0H106V40H103V0Z" fill="#7F7F7F"/>
</svg>
